<?xml version="1.0" encoding="utf-8"?>
<!-- Generator: Adobe Illustrator 23.0.2, SVG Export Plug-In . SVG Version: 6.00 Build 0)  -->
<svg version="1.1" id="Layer_1" xmlns="http://www.w3.org/2000/svg" xmlns:xlink="http://www.w3.org/1999/xlink" x="0px" y="0px"
	 viewBox="0 0 1080 543" style="enable-background:new 0 0 1080 543;" xml:space="preserve">
<style type="text/css">
	.st0{fill:#1E3A8A;}
</style>
<g transform="translate(0.000000,543.000000) scale(0.100000,-0.100000)">
	<path class="st0" d="M2435,5009c-396-60-596-425-513-939c14-88,52-239,83-329c14-41,25-76,25-78c0-14-226-105-442-179
		c-790-269-1021-370-1127-490c-49-56-71-119-71-204c0-54,6-78,31-128c39-79,99-133,302-273c187-130,387-276,387-284
		c0-3-48-108-106-233c-333-711-377-823-377-967c-1-83,21-133,81-187c51-46,69-55,131-69c37-8,65-7,106,1c63,13,110,43,495,310
		c476,331,786,528,814,517c7-3,113-117,233-254c121-136,256-282,301-324c226-213,388-251,541-129c116,91,192,396,280,1120
		c17,135,32,272,33,305l3,60l-242,25l-242,26l-6-41c-3-22-16-134-30-250c-31-251-83-603-93-629c-9-20-10-19-337,348
		c-224,252-306,302-444,277c-145-27-319-119-686-364c-87-59-161-105-163-103s12,35,31,72c75,150,180,402,193,465
		c27,131-11,222-147,354c-82,79-273,228-375,292c-24,15-43,32-41,37c4,12,184,79,578,215c334,116,443,158,567,220l77,39l60-55
		c223-204,572-343,1020-408c444-64,1001-83,1049-35c19,19-30,90-154,225c-65,72-125,140-132,153c-17,32,6,74,133,236
		c101,130,139,191,139,222c0,15-9,16-67,11c-38-3-187-28-333-56c-666-125-1014-139-1220-48c-80,34-80,31,33,147
		c238,245,357,501,357,763c-1,182-57,326-173,442c-81,82-160,126-271,155C2636,5013,2512,5021,2435,5009z M2644,4491
		c78-74,9-299-146-476c-31-35-43-43-49-33c-19,34-49,223-49,310c0,113,13,162,51,201c28,28,33,29,99,25
		C2605,4515,2624,4510,2644,4491z"/>
	<path class="st0" d="M5558,3844c-218-52-356-250-319-456c31-175,144-286,411-402c215-94,293-194,242-310c-60-134-258-141-446-15
		c-47,31-84,49-98,47c-15-2-36-28-69-83c-27-44-48-88-49-97c-1-45,191-157,315-183c91-19,245-19,318,0c120,31,222,99,277,185
		c61,95,83,208,60,308c-37,159-157,271-406,380c-143,62-167,76-216,120c-70,63-87,141-45,202c37,56,68,72,144,77c89,7,154-12,256-73
		c56-33,84-44,101-40c25,6,126,149,126,179c0,25-38,55-125,98C5883,3855,5702,3880,5558,3844z"/>
	<path class="st0" d="M6852,3578c-494-1065-551-1192-541-1210c9-16,24-18,128-18c100,0,120,3,134,18c8,9,39,70,68,135l52,117h322
		h322l53-117c29-65,60-126,68-135c13-15,33-18,132-18c136,0,150,7,127,62c-39,92-651,1425-659,1436c-6,6-25,12-43,12h-32L6852,3578z
		 M7124,3094l104-229l-103-3c-57-1-153-1-213,0l-110,3l90,200c49,110,96,215,104,234s16,32,19,29C7018,3326,7067,3220,7124,3094z"/>
	<path class="st0" d="M7940,3821c-7-13-10-258-10-726s3-713,10-726c10-17,22-19,128-19c79,0,122,4,130,12c17,17,17,1449,0,1466
		c-8,8-51,12-130,12C7962,3840,7950,3838,7940,3821z"/>
	<path class="st0" d="M8605,3828c-3-7-4-341-3-743l3-730h335c323,0,338,1,410,23c289,90,491,330,531,631c50,374-212,736-590,816
		C9195,3845,8612,3847,8605,3828z M9267,3562c34-11,82-31,105-45c54-31,139-120,166-173c77-151,75-366-6-504c-37-65-107-136-166-169
		c-90-51-143-61-328-61h-168v491v492l168-5C9168,3584,9219,3578,9267,3562z"/>
	<path class="st0" d="M5244,2106c-52-23-64-50-64-143c0-45,5-93,11-106c15-33,60-57,106-57c45,0,77,20,98,61l16,29h-33
		c-22,0-37-7-46-20c-15-24-54-26-76-4c-20,19-23,163-4,182c20,20,74,15,89-9c10-14,22-20,41-17c27,3,27,4,12,33
		C5369,2108,5301,2131,5244,2106z"/>
	<path class="st0" d="M5523,2105c-50-21-66-63-61-162c3-81,4-86,36-114c25-23,42-29,77-29s52,6,77,29c32,28,33,33,36,114
		c5,101-11,141-63,163C5583,2123,5564,2123,5523,2105z M5620,2041c17-33,13-152-7-173c-20-22-51-23-75-1c-14,13-18,31-18,85
		c0,88,10,108,55,108C5599,2060,5613,2054,5620,2041z"/>
	<path class="st0" d="M6093,2104c-49-25-66-72-61-167c5-75,7-82,37-109c53-48,152-32,180,29c14,30,14,163,1,197
		C6230,2107,6149,2133,6093,2104z M6188,2048c19-19,16-163-4-182c-22-23-60-20-78,6s-22,138-6,169C6112,2063,6168,2068,6188,2048z"
		/>
	<path class="st0" d="M7001,2103c-48-24-64-68-59-166c3-74,5-80,36-108c26-23,42-29,78-29c39,0,51,5,80,34c19,19,34,39,34,45
		c0,19-56,12-75-9c-23-25-57-26-78-2c-20,21-24,140-7,173c15,27,75,26,90-1c7-13,21-20,40-20c35,0,35,1,14,41c-15,30-66,59-101,59
		C7043,2120,7020,2112,7001,2103z"/>
	<path class="st0" d="M8241,2103c-48-24-64-68-59-166c3-74,5-80,36-108c26-23,42-29,78-29c39,0,51,5,80,34c19,19,34,39,34,45
		c0,19-56,12-75-9c-23-25-57-26-78-2c-20,21-24,140-7,173c15,27,75,26,90-1c7-13,21-20,40-20c35,0,35,1,14,41c-15,30-66,59-101,59
		C8283,2120,8260,2112,8241,2103z"/>
	<path class="st0" d="M9195,2113c-40-10-73-53-80-104c-18-127,24-209,105-209c51,0,93,21,108,55c16,35,16,35-13,35c-14,0-34-9-45-20
		s-31-20-44-20c-37,0-56,35-56,105c0,74,18,105,60,105c19,0,34-7,42-20c14-22,68-28,68-7c0,23-32,59-66,73S9230,2121,9195,2113z"/>
	<path class="st0" d="M5780,1955v-155h100h100v25c0,24-2,25-70,25h-70v130v130h-30h-30V1955z"/>
	<path class="st0" d="M6350,1955v-155h30h30v66c0,62,1,65,23,62c16-2,30-20,52-65c28-58,33-63,63-63c17,0,32,2,32,5s-14,33-31,66
		l-30,61l25,23c36,33,36,96,1,130c-22,23-32,25-110,25h-85V1955z M6494,2054c10-4,16-18,16-35c0-32-27-49-76-49c-22,0-24,4-24,45
		c0,45,0,45,34,45C6463,2060,6485,2057,6494,2054z"/>
	<path class="st0" d="M6660,1955v-155h105h105v25c0,24-2,25-75,25h-75v40v40h59c54,0,59,2,63,25c5,23,3,24-56,27l-61,3l-3,38l-3,37
		h75c74,0,76,1,76,25v25h-105h-105V1955z"/>
	<path class="st0" d="M7212,2088c2-19,10-24,46-26l42-3v-130v-129h30h30v130v130h40c36,0,40,3,40,25v25h-116
		C7210,2110,7209,2110,7212,2088z"/>
	<path class="st0" d="M7531,2018c-18-51-44-121-57-155l-23-63h32c27,0,35,5,44,30c11,28,15,30,63,30s52-2,63-30c9-25,17-30,43-30h31
		l-56,155c-52,144-58,155-81,155S7561,2101,7531,2018z M7614,1964c9-26,14-50,11-54c-5-8-64-8-67,0c-4,10,25,100,32,100
		C7595,2010,7605,1989,7614,1964z"/>
	<path class="st0" d="M7790,1955v-155h100h100v25c0,24-2,25-70,25h-70v130v130h-30h-30V1955z"/>
	<path class="st0" d="M8552,2083c-16-40-102-276-102-280c0-2,13-3,29-3c23,0,31,6,40,30c9,29,13,30,66,30s57-1,66-30
		c9-24,17-30,41-30c34,0,37-15-32,175c-42,116-50,130-72,133C8568,2110,8560,2105,8552,2083z M8609,1960c8-25,13-47,12-50
		c-1-8-71-12-71-4c0,21,35,113,40,107C8594,2008,8602,1985,8609,1960z"/>
	<path class="st0" d="M8790,1955v-155h31h30l-3,90c-2,50,0,90,4,90c3,0,32-40,63-90c50-80,60-90,86-90h29v155v155h-30h-30v-90
		c0-49-3-90-7-90c-5,0-33,41-63,90c-48,78-59,90-82,90h-28V1955z"/>
	<path class="st0" d="M9420,1955v-155h105h105v25c0,24-2,25-75,25h-75v40v40h60c57,0,60,1,60,25c0,22-4,24-57,27l-58,3l-3,38l-3,37
		h75c74,0,76,1,76,25v25h-105h-105V1955z"/>
	<path class="st0" d="M9710,1955v-155h30h30v66c0,62,1,65,23,62c16-2,32-21,55-65c29-56,37-63,63-63c16,0,29,2,29,5s-14,33-31,66
		l-30,61l25,23c36,33,36,96,1,130c-22,23-32,25-110,25h-85V1955z M9870,2040c16-29-4-58-44-66c-46-8-56,0-56,47v39h45
		C9849,2060,9862,2055,9870,2040z"/>
	<path class="st0" d="M5198,1437c-27-73-48-136-48-140s11-7,25-7c18,0,26,7,31,25c6,23,11,25,60,25s54-2,60-25c5-19,13-25,35-25h28
		l-30,83c-17,45-40,108-51,140c-16,46-24,57-41,57C5248,1570,5238,1552,5198,1437z M5280,1455c5-14,13-37,16-50c6-23,3-25-31-25
		c-26,0-36,4-32,13c2,6,10,29,18,50c7,20,14,37,16,37S5275,1469,5280,1455z"/>
	<path class="st0" d="M5390,1558c0-7,15-69,34-138c30-115,35-125,57-125c21,0,26,9,47,78c14,43,27,75,31,72c3-4,15-39,27-78
		c18-61,25-72,45-75c23-3,26,4,60,138l37,140h-27c-26,0-29-4-46-80c-10-45-22-83-25-85c-4-3-18,34-30,81c-20,73-26,85-43,82
		c-16-2-26-22-47-88l-27-85l-11,40c-6,22-16,61-23,88c-10,40-15,47-35,47C5401,1570,5390,1564,5390,1558z"/>
	<path class="st0" d="M5825,1558c-2-7-25-69-50-137c-25-69-45-126-45-128s11-3,25-3c18,0,28,7,35,25c8,22,15,25,60,25s52-3,60-25
		c7-18,17-25,35-25c31,0,33-12-30,158c-34,95-47,118-64,120C5839,1570,5828,1565,5825,1558z M5879,1398c1-14-7-18-30-18
		c-28,0-31,2-25,25c3,13,11,37,17,52l11,28l13-35C5873,1431,5879,1407,5879,1398z"/>
	<path class="st0" d="M6010,1430v-140h25c24,0,25,3,25,55c0,51,2,55,23,55c18,0,29-12,50-55c24-49,30-55,58-55h31l-31,56l-32,55
		l26,30c33,40,32,74-4,110c-27,27-35,29-100,29h-71V1430z M6154,1497c9-15,7-22-13-38c-14-11-36-19-50-17c-22,3-26,9-29,41l-3,38
		l42-3C6128,1516,6147,1509,6154,1497z"/>
	<path class="st0" d="M6270,1430v-140h90c83,0,90,1,90,20c0,18-7,20-65,20h-65v40v40h55c48,0,55,2,55,20s-7,20-55,20h-55v35v35h65
		c63,0,65,1,65,25c0,25-1,25-90,25h-90V1430z"/>
	<path class="st0" d="M6500,1430v-140h30h29l3,82l3,82l52-82c43-68,57-82,78-82h25v140v140h-25c-24,0-24-2-27-87l-3-88l-57,88
		c-47,71-62,87-83,87h-25V1430z"/>
	<path class="st0" d="M6780,1430v-140h95c88,0,95,1,95,20c0,18-7,20-65,20h-65v40v40h55c48,0,55,2,55,20s-7,20-55,20h-55v35v35h65
		c63,0,65,1,65,25c0,25,0,25-95,25h-95V1430z"/>
	<path class="st0" d="M7035,1545c-17-16-25-35-25-59c0-39,19-63,58-72c63-14,77-21,80-42c5-32-37-49-85-34c-35,11-63,3-63-18
		c0-14,52-30,101-30c62,0,99,31,99,83c0,43-23,64-86,80c-38,9-50,17-52,34c-5,31,30,48,70,34c22-8,35-8,44,0c20,16,17,24-11,37
		C7120,1579,7062,1573,7035,1545z"/>
	<path class="st0" d="M7265,1545c-17-16-25-35-25-59c0-39,19-63,58-72c63-14,77-21,80-42c5-32-37-49-85-34c-35,11-63,3-63-18
		c0-14,52-30,101-30c62,0,99,31,99,83c0,43-23,64-86,80c-38,9-50,17-52,34c-5,31,30,48,70,34c22-8,35-8,44,0c20,16,17,24-11,37
		C7350,1579,7292,1573,7265,1545z"/>
	<path class="st0" d="M7594,1430l-51-140h28c22,0,30,6,35,25c6,23,11,25,60,25s54-2,60-25c5-19,13-25,35-25h28l-26,68
		c-14,37-37,100-51,140c-21,58-30,72-46,72C7648,1570,7637,1548,7594,1430z M7680,1455c5-14,13-37,16-50c6-23,3-25-30-25
		c-20,0-36,1-36,3c0,10,33,97,36,97S7675,1469,7680,1455z"/>
	<path class="st0" d="M7855,1559c-32-18-45-40-45-74c0-41,25-63,86-78c39-9,50-17,52-34c5-34-38-51-84-34c-28,10-38,10-51,0
		c-13-12-13-15,7-31c32-26,119-25,154,3c51,41,25,139-38,139c-42,0-76,18-76,40c0,30,42,47,77,31c22-10,29-9,42,3c11,12,12,19,4,27
		C7966,1568,7879,1573,7855,1559z"/>
	<path class="st0" d="M8085,1559c-32-18-45-40-45-74c0-41,25-63,86-78c39-9,50-17,52-34c5-34-38-51-84-34c-28,10-38,10-51,0
		c-13-12-13-15,7-31c32-26,119-25,154,3c51,41,25,139-38,139c-42,0-76,18-76,40c0,30,42,47,77,31c22-10,29-9,42,3c11,12,12,19,4,27
		C8196,1568,8109,1573,8085,1559z"/>
	<path class="st0" d="M8309,1541c-27-28-29-34-29-111s2-83,29-111c41-41,101-41,142,0c27,28,29,34,29,111s-2,83-29,111
		c-23,23-38,29-71,29S8332,1564,8309,1541z M8410,1510c16-16,20-33,20-82c0-87-36-123-82-81c-14,12-18,31-18,84c0,59,3,70,22,83
		C8381,1534,8386,1534,8410,1510z"/>
	<path class="st0" d="M8580,1557c-40-20-51-53-48-140c3-72,6-81,31-103c40-34,108-34,142,1c14,13,25,31,25,40c0,22-42,19-63-5
		c-9-11-24-20-32-20c-34,0-55,38-55,98c0,84,36,119,83,81c29-22,67-25,67-5c0,8-14,26-31,40C8665,1573,8621,1578,8580,1557z"/>
	<path class="st0" d="M8780,1430v-140h30h30v140v140h-30h-30V1430z"/>
	<path class="st0" d="M8945,1493c-15-43-38-106-51-140l-23-63h28c22,0,30,6,35,25c6,23,11,25,60,25s54-2,60-25c5-19,13-25,35-25h28
		l-51,140c-44,120-54,140-72,140S8968,1556,8945,1493z M9024,1403c7-21,4-23-28-23c-20,0-36,1-36,3s8,26,17,53l17,49l12-30
		C9012,1438,9021,1415,9024,1403z"/>
	<path class="st0" d="M9110,1545c0-22,4-25,35-25h35v-115v-115h25h25v115v115h40c36,0,40,3,40,25v25h-100h-100V1545z"/>
	<path class="st0" d="M9350,1430v-140h28h27l-3,140l-3,140h-25h-24V1430z"/>
	<path class="st0" d="M9508,1555c-35-20-51-72-46-152c4-57,8-69,32-89c30-26,92-32,128-13c42,23,62,135,37,208
		C9640,1563,9566,1586,9508,1555z M9614,1472c13-46-1-120-26-133c-32-17-66,3-74,46c-10,58,4,125,29,135
		C9573,1531,9603,1511,9614,1472z"/>
	<path class="st0" d="M9720,1430v-140h30h29l3,82l3,83l52-83c43-67,57-82,78-82h25v140v140h-25c-24,0-24-2-27-87l-3-88l-57,88
		c-47,71-62,87-83,87h-25V1430z"/>
</g>
</svg>
